<svg xmlns="http://www.w3.org/2000/svg" viewBox="0 0 45 27"><defs><style>.cls-1{fill:#231f20;}</style></defs><title>Asset 2</title><g id="Layer_2" data-name="Layer 2"><g id="Layer_2-2" data-name="Layer 2"><path class="cls-1" d="M43.32,2.87A6.59,6.59,0,0,1,45,0h-.51C37.25.29,33.88,6.56,30.62,12.63A58.08,58.08,0,0,1,27,18.84,7.75,7.75,0,0,0,27,18c0-4.06-3-10.44-1.68-15.13A6.59,6.59,0,0,1,27,0h-.51C19.25.29,15.88,6.56,12.62,12.63A59,59,0,0,1,9,18.85,7.94,7.94,0,0,0,9,18C9,13,4.44,4.56,9,0A9,9,0,0,0,0,9c0,4.06,3,10.46,1.67,15.15A6.6,6.6,0,0,1,0,27H.49c7.89-.27,11.58-7.12,14.84-13.18.88-1.64,1.74-3.25,2.67-4.71.05,4.06,3,10.4,1.67,15.05A6.6,6.6,0,0,1,18,27h.53c7.86-.3,11.54-7.13,14.8-13.18.88-1.64,1.74-3.25,2.67-4.71.06,5,4.53,13.37,0,17.9a9,9,0,0,0,9-9C45,13.94,42,7.56,43.32,2.87Z"/></g></g></svg>